<svg width="360" height="27" viewBox="0 0 360 27" fill="none" xmlns="http://www.w3.org/2000/svg">
<rect x="-5" width="369" height="18" fill="#F0F0F0"/>
<path d="M170.5 13.5001C185 33.0001 203 27.5 212 13.5001H170.5Z" fill="#F0F0F0"/>
<path d="M177.496 11.064C176.691 11.064 176.035 10.8693 175.528 10.48C175.437 10.416 175.395 10.3413 175.4 10.256C175.411 10.1653 175.451 10.0987 175.52 10.056C175.589 10.0133 175.669 10.024 175.76 10.088C176.005 10.2747 176.264 10.4107 176.536 10.496C176.813 10.576 177.133 10.616 177.496 10.616C178.003 10.616 178.381 10.5173 178.632 10.32C178.888 10.1227 179.016 9.864 179.016 9.544C179.016 9.27733 178.923 9.06933 178.736 8.92C178.555 8.77067 178.253 8.65333 177.832 8.568L177.024 8.4C176.523 8.29867 176.147 8.128 175.896 7.888C175.651 7.648 175.528 7.328 175.528 6.928C175.528 6.60267 175.611 6.31733 175.776 6.072C175.947 5.82667 176.181 5.63733 176.48 5.504C176.779 5.36533 177.123 5.296 177.512 5.296C177.859 5.296 178.176 5.344 178.464 5.44C178.757 5.536 179.024 5.688 179.264 5.896C179.344 5.96 179.379 6.03467 179.368 6.12C179.357 6.20533 179.317 6.26933 179.248 6.312C179.184 6.34933 179.107 6.33333 179.016 6.264C178.792 6.08267 178.557 5.952 178.312 5.872C178.067 5.78667 177.8 5.744 177.512 5.744C177.064 5.744 176.704 5.85067 176.432 6.064C176.165 6.27733 176.032 6.56267 176.032 6.92C176.032 7.20267 176.117 7.42667 176.288 7.592C176.459 7.752 176.733 7.86933 177.112 7.944L177.928 8.112C178.467 8.224 178.867 8.392 179.128 8.616C179.389 8.83467 179.52 9.136 179.52 9.52C179.52 9.824 179.437 10.0933 179.272 10.328C179.112 10.5573 178.88 10.7387 178.576 10.872C178.272 11 177.912 11.064 177.496 11.064ZM182.587 11.064C181.99 11.064 181.518 10.888 181.171 10.536C180.83 10.1787 180.659 9.69067 180.659 9.072C180.659 8.672 180.737 8.32 180.891 8.016C181.046 7.712 181.259 7.47467 181.531 7.304C181.809 7.13333 182.126 7.048 182.483 7.048C183.001 7.048 183.403 7.216 183.691 7.552C183.979 7.888 184.123 8.34933 184.123 8.936C184.123 9.08533 184.049 9.16 183.899 9.16H181.139C181.155 9.64 181.286 10.0107 181.531 10.272C181.782 10.528 182.129 10.656 182.571 10.656C182.769 10.656 182.958 10.632 183.139 10.584C183.326 10.5307 183.507 10.4373 183.683 10.304C183.779 10.24 183.862 10.2267 183.931 10.264C184.001 10.296 184.038 10.352 184.043 10.432C184.054 10.5067 184.014 10.576 183.923 10.64C183.753 10.7787 183.545 10.8853 183.299 10.96C183.059 11.0293 182.822 11.064 182.587 11.064ZM182.491 7.44C182.086 7.44 181.769 7.568 181.539 7.824C181.315 8.07467 181.185 8.4 181.147 8.8H183.683C183.673 8.37333 183.566 8.04 183.363 7.8C183.161 7.56 182.87 7.44 182.491 7.44ZM187.206 11.064C186.609 11.064 186.137 10.888 185.79 10.536C185.449 10.1787 185.278 9.69067 185.278 9.072C185.278 8.672 185.355 8.32 185.51 8.016C185.665 7.712 185.878 7.47467 186.15 7.304C186.427 7.13333 186.745 7.048 187.102 7.048C187.619 7.048 188.022 7.216 188.31 7.552C188.598 7.888 188.742 8.34933 188.742 8.936C188.742 9.08533 188.667 9.16 188.518 9.16H185.758C185.774 9.64 185.905 10.0107 186.15 10.272C186.401 10.528 186.747 10.656 187.19 10.656C187.387 10.656 187.577 10.632 187.758 10.584C187.945 10.5307 188.126 10.4373 188.302 10.304C188.398 10.24 188.481 10.2267 188.55 10.264C188.619 10.296 188.657 10.352 188.662 10.432C188.673 10.5067 188.633 10.576 188.542 10.64C188.371 10.7787 188.163 10.8853 187.918 10.96C187.678 11.0293 187.441 11.064 187.206 11.064ZM187.11 7.44C186.705 7.44 186.387 7.568 186.158 7.824C185.934 8.07467 185.803 8.4 185.766 8.8H188.302C188.291 8.37333 188.185 8.04 187.982 7.8C187.779 7.56 187.489 7.44 187.11 7.44ZM192.889 11.048C192.739 11.048 192.665 10.968 192.665 10.808V5.552C192.665 5.392 192.737 5.312 192.881 5.312C192.95 5.312 193.003 5.32533 193.041 5.352C193.078 5.37867 193.113 5.42133 193.145 5.48L195.321 9.608L197.481 5.48C197.518 5.42133 197.553 5.37867 197.585 5.352C197.622 5.32533 197.675 5.312 197.745 5.312C197.889 5.312 197.961 5.392 197.961 5.552V10.808C197.961 10.968 197.886 11.048 197.737 11.048C197.582 11.048 197.505 10.968 197.505 10.808V6.312L195.553 10.016C195.521 10.0747 195.489 10.1173 195.457 10.144C195.43 10.1653 195.387 10.176 195.329 10.176C195.265 10.176 195.214 10.1627 195.177 10.136C195.145 10.1093 195.115 10.0693 195.089 10.016L193.113 6.32V10.808C193.113 10.968 193.038 11.048 192.889 11.048ZM201.286 11.064C200.923 11.064 200.608 10.984 200.342 10.824C200.075 10.6587 199.867 10.4267 199.718 10.128C199.574 9.824 199.502 9.46667 199.502 9.056C199.502 8.65067 199.574 8.29867 199.718 8C199.867 7.696 200.075 7.46133 200.342 7.296C200.608 7.13067 200.923 7.048 201.286 7.048C201.654 7.048 201.971 7.13067 202.238 7.296C202.504 7.46133 202.71 7.696 202.854 8C203.003 8.29867 203.078 8.65067 203.078 9.056C203.078 9.46667 203.003 9.824 202.854 10.128C202.71 10.4267 202.504 10.6587 202.238 10.824C201.971 10.984 201.654 11.064 201.286 11.064ZM201.286 10.656C201.68 10.656 201.995 10.5173 202.23 10.24C202.464 9.95733 202.582 9.56267 202.582 9.056C202.582 8.54933 202.464 8.15733 202.23 7.88C201.995 7.60267 201.68 7.464 201.286 7.464C200.891 7.464 200.576 7.60267 200.342 7.88C200.112 8.15733 199.998 8.54933 199.998 9.056C199.998 9.56267 200.112 9.95733 200.342 10.24C200.576 10.5173 200.891 10.656 201.286 10.656ZM204.765 11.048C204.599 11.048 204.517 10.9653 204.517 10.8V7.32C204.517 7.14933 204.599 7.064 204.765 7.064C204.919 7.064 204.997 7.14933 204.997 7.32V7.824C205.114 7.57333 205.287 7.38133 205.517 7.248C205.751 7.11467 206.021 7.04533 206.325 7.04C206.389 7.03467 206.442 7.048 206.485 7.08C206.527 7.112 206.549 7.16267 206.549 7.232C206.554 7.38133 206.477 7.464 206.317 7.48L206.205 7.488C205.826 7.52 205.533 7.64533 205.325 7.864C205.117 8.07733 205.013 8.36533 205.013 8.728V10.8C205.013 10.9653 204.93 11.048 204.765 11.048ZM209.292 11.064C208.695 11.064 208.223 10.888 207.876 10.536C207.535 10.1787 207.364 9.69067 207.364 9.072C207.364 8.672 207.441 8.32 207.596 8.016C207.751 7.712 207.964 7.47467 208.236 7.304C208.513 7.13333 208.831 7.048 209.188 7.048C209.705 7.048 210.108 7.216 210.396 7.552C210.684 7.888 210.828 8.34933 210.828 8.936C210.828 9.08533 210.753 9.16 210.604 9.16H207.844C207.86 9.64 207.991 10.0107 208.236 10.272C208.487 10.528 208.833 10.656 209.276 10.656C209.473 10.656 209.663 10.632 209.844 10.584C210.031 10.5307 210.212 10.4373 210.388 10.304C210.484 10.24 210.567 10.2267 210.636 10.264C210.705 10.296 210.743 10.352 210.748 10.432C210.759 10.5067 210.719 10.576 210.628 10.64C210.457 10.7787 210.249 10.8853 210.004 10.96C209.764 11.0293 209.527 11.064 209.292 11.064ZM209.196 7.44C208.791 7.44 208.473 7.568 208.244 7.824C208.02 8.07467 207.889 8.4 207.852 8.8H210.388C210.377 8.37333 210.271 8.04 210.068 7.8C209.865 7.56 209.575 7.44 209.196 7.44Z" fill="black" fill-opacity="0.7"/>
<path d="M187 18.5L192 23L196.5 18" stroke="black"/>
</svg>
