<svg width="54" height="53" viewBox="0 0 54 53" fill="none" xmlns="http://www.w3.org/2000/svg">
<g clip-path="url(#clip0_190_581)">
<path d="M49.2645 24.9576L37.0301 29.8125H46.98C46.1668 31.3497 45.262 32.8434 44.2516 34.2647L30.277 39.75H39.3104C33.0518 45.2063 24.1123 48.0665 11.4139 45.2177L4.22829 52.2702C3.23899 53.2412 1.63798 53.2406 0.648682 52.2702C-0.340088 51.2998 -0.340088 49.7279 0.648682 48.7569L27.3745 22.526C27.8856 21.8765 27.8642 20.9536 27.2571 20.3574C26.5979 19.7104 25.5295 19.7104 24.8714 20.3574L7.08934 37.8101C2.59036 6.00391 38.6965 0.840342 50.509 0.00875986C52.4992 -0.1314 54.1382 1.47765 53.9948 3.42995C53.652 8.12909 52.5762 16.7488 49.2645 24.9576Z" fill="#FECFA3"/>
</g>
<defs>
<clipPath id="clip0_190_581">
<rect width="54" height="53" fill="white"/>
</clipPath>
</defs>
</svg>
