<svg width="14" height="14" viewBox="0 0 14 14" fill="none" xmlns="http://www.w3.org/2000/svg">
<path d="M0 5.21991V5.06132C0 3.14999 1.38141 1.51975 3.26484 1.20584C4.48711 0.998305 5.78047 1.40463 6.67188 2.29741L7 2.62499L7.30352 2.29741C8.21953 1.40463 9.48828 0.998305 10.7352 1.20584C12.6191 1.51975 14 3.14999 14 5.06132V5.21991C14 6.35467 13.5297 7.44022 12.6984 8.21405L7.75742 12.8269C7.55234 13.0183 7.28164 13.125 7 13.125C6.71836 13.125 6.44766 13.0183 6.24258 12.8269L1.30129 8.21405C0.471133 7.44022 8.20313e-06 6.35467 8.20313e-06 5.21991H0Z" fill="#FF8635" fill-opacity="0.6"/>
</svg>
