<svg width="17" height="17" viewBox="0 0 17 17" fill="none" xmlns="http://www.w3.org/2000/svg">
<path d="M15.5833 4.60417H11.3333" stroke="#FFDD99" stroke-width="1.5" stroke-miterlimit="10" stroke-linecap="round" stroke-linejoin="round"/>
<path d="M4.25008 4.60417H1.41675" stroke="#FFDD99" stroke-width="1.5" stroke-miterlimit="10" stroke-linecap="round" stroke-linejoin="round"/>
<path d="M7.08341 7.08333C8.45262 7.08333 9.56258 5.97337 9.56258 4.60417C9.56258 3.23496 8.45262 2.125 7.08341 2.125C5.71421 2.125 4.60425 3.23496 4.60425 4.60417C4.60425 5.97337 5.71421 7.08333 7.08341 7.08333Z" stroke="#FFDD99" stroke-width="1.5" stroke-miterlimit="10" stroke-linecap="round" stroke-linejoin="round"/>
<path d="M15.5833 12.3958H12.75" stroke="#FFDD99" stroke-width="1.5" stroke-miterlimit="10" stroke-linecap="round" stroke-linejoin="round"/>
<path d="M5.66675 12.3958H1.41675" stroke="#FFDD99" stroke-width="1.5" stroke-miterlimit="10" stroke-linecap="round" stroke-linejoin="round"/>
<path d="M9.91667 14.875C11.2859 14.875 12.3958 13.765 12.3958 12.3958C12.3958 11.0266 11.2859 9.91667 9.91667 9.91667C8.54746 9.91667 7.4375 11.0266 7.4375 12.3958C7.4375 13.765 8.54746 14.875 9.91667 14.875Z" stroke="#FFDD99" stroke-width="1.5" stroke-miterlimit="10" stroke-linecap="round" stroke-linejoin="round"/>
</svg>
